# This file uses centimeters as units for non-parametric coordinates.

mtllib Estante.mtl
g default
v -6.459332 1.013373 -1.060165
v -5.459332 1.013373 -1.060165
v -6.459332 1.013373 -3.600696
v -5.459332 1.013373 -3.600696
v -6.459332 0.013372 -3.600696
v -5.459332 0.013372 -3.600696
v -6.459332 1.013373 -1.060165
v -5.459332 1.013373 -1.060165
v -5.459332 1.013373 -3.600696
v -6.459332 1.013373 -3.600696
v -5.459332 0.013372 -3.600696
v -6.459332 0.013372 -3.600696
vt 0.375004 0.249994
vt 0.624999 0.249996
vt 0.625000 0.500000
vt 0.375000 0.500000
vt 0.625000 0.750000
vt 0.375000 0.750000
vt 0.624987 0.999987
vt 0.375037 1.000013
vt 0.875000 0.000000
vt 0.875000 0.250000
vt 0.125000 0.000000
vt 0.125000 0.250000
vt 0.375004 0.249994
vt 0.375000 0.500000
vt 0.625000 0.500000
vt 0.624999 0.249996
vt 0.375000 0.750000
vt 0.625000 0.750000
vt 0.375037 1.000013
vt 0.624987 0.999987
vt 0.875000 0.250000
vt 0.875000 0.000000
vt 0.125000 0.000000
vt 0.125000 0.250000
vn 0.000000 -1.000000 0.000000
vn 0.000000 -1.000000 0.000000
vn 0.000000 -1.000000 0.000000
vn 0.000000 -1.000000 0.000000
vn 0.000000 0.000000 1.000000
vn 0.000000 0.000000 1.000000
vn 0.000000 0.000000 1.000000
vn 0.000000 0.000000 1.000000
vn 0.000000 0.930510 -0.366266
vn 0.000000 0.930510 -0.366266
vn 0.000000 0.930510 -0.366266
vn 0.000000 0.930510 -0.366266
vn -1.000000 0.000000 0.000000
vn -1.000000 0.000000 0.000000
vn -1.000000 0.000000 0.000000
vn 1.000000 0.000000 0.000000
vn 1.000000 0.000000 0.000000
vn 1.000000 0.000000 0.000000
vn 0.000000 1.000000 0.000000
vn 0.000000 1.000000 0.000000
vn 0.000000 1.000000 0.000000
vn 0.000000 1.000000 0.000000
vn 0.000000 0.000000 -1.000000
vn 0.000000 0.000000 -1.000000
vn 0.000000 0.000000 -1.000000
vn 0.000000 0.000000 -1.000000
vn 0.000000 -0.930510 0.366266
vn 0.000000 -0.930510 0.366266
vn 0.000000 -0.930510 0.366266
vn 0.000000 -0.930510 0.366266
vn 1.000000 0.000000 0.000000
vn 1.000000 0.000000 0.000000
vn 1.000000 0.000000 0.000000
vn -1.000000 0.000000 0.000000
vn -1.000000 0.000000 0.000000
vn -1.000000 0.000000 0.000000
s off
g Triangulo2 Estante
usemtl lambert5SG
f 7/1/1 10/4/2 9/3/3 8/2/4
f 10/4/5 12/6/6 11/5/7 9/3/8
f 12/6/9 7/8/10 8/7/11 11/5/12
f 8/2/13 9/10/14 11/9/15
f 12/11/16 10/12/17 7/1/18
f 1/13/19 2/16/20 4/15/21 3/14/22
f 3/14/23 4/15/24 6/18/25 5/17/26
f 5/17/27 6/18/28 2/20/29 1/19/30
f 2/16/31 6/22/32 4/21/33
f 5/23/34 1/13/35 3/24/36
g default
v 5.434707 1.013373 -1.060165
v 6.434707 1.013373 -1.060165
v 5.434707 1.013373 -3.600696
v 6.434707 1.013373 -3.600696
v 5.434707 0.013372 -3.600696
v 6.434707 0.013372 -3.600696
vt 0.375004 0.249994
vt 0.624999 0.249996
vt 0.625000 0.500000
vt 0.375000 0.500000
vt 0.625000 0.750000
vt 0.375000 0.750000
vt 0.624987 0.999987
vt 0.375037 1.000013
vt 0.875000 0.000000
vt 0.875000 0.250000
vt 0.125000 0.000000
vt 0.125000 0.250000
vn 0.000000 1.000000 0.000000
vn 0.000000 1.000000 0.000000
vn 0.000000 1.000000 0.000000
vn 0.000000 1.000000 0.000000
vn 0.000000 0.000000 -1.000000
vn 0.000000 0.000000 -1.000000
vn 0.000000 0.000000 -1.000000
vn 0.000000 0.000000 -1.000000
vn 0.000000 -0.930510 0.366266
vn 0.000000 -0.930510 0.366266
vn 0.000000 -0.930510 0.366266
vn 0.000000 -0.930510 0.366266
vn 1.000000 0.000000 0.000000
vn 1.000000 0.000000 0.000000
vn 1.000000 0.000000 0.000000
vn -1.000000 0.000000 0.000000
vn -1.000000 0.000000 0.000000
vn -1.000000 0.000000 0.000000
s off
g Estante Triangulo
usemtl lambert5SG
f 13/25/37 14/26/38 16/27/39 15/28/40
f 15/28/41 16/27/42 18/29/43 17/30/44
f 17/30/45 18/29/46 14/31/47 13/32/48
f 14/26/49 18/33/50 16/34/51
f 17/35/52 13/25/53 15/36/54
g default
v -6.503295 1.006255 3.603993
v 6.503295 1.006255 3.603993
v -6.503295 1.264129 3.603993
v 6.503295 1.264129 3.603993
v -6.503295 1.264129 -3.603993
v 6.503295 1.264129 -3.603993
v -6.503295 1.006255 -3.603993
v 6.503295 1.006255 -3.603993
vt 0.375000 0.000000
vt 0.625000 0.000000
vt 0.375000 0.250000
vt 0.625000 0.250000
vt 0.375000 0.500000
vt 0.625000 0.500000
vt 0.375000 0.750000
vt 0.625000 0.750000
vt 0.375000 1.000000
vt 0.625000 1.000000
vt 0.875000 0.000000
vt 0.875000 0.250000
vt 0.125000 0.000000
vt 0.125000 0.250000
vn 0.000000 -0.000001 1.000000
vn 0.000000 -0.000001 1.000000
vn 0.000000 -0.000001 1.000000
vn 0.000000 -0.000001 1.000000
vn 0.000000 1.000000 0.000000
vn 0.000000 1.000000 0.000000
vn 0.000000 1.000000 0.000000
vn 0.000000 1.000000 0.000000
vn 0.000000 0.000000 -1.000000
vn 0.000000 0.000000 -1.000000
vn 0.000000 0.000000 -1.000000
vn 0.000000 0.000000 -1.000000
vn 0.000000 -1.000000 0.000000
vn 0.000000 -1.000000 0.000000
vn 0.000000 -1.000000 0.000000
vn 0.000000 -1.000000 0.000000
vn 1.000000 0.000000 0.000000
vn 1.000000 0.000000 0.000000
vn 1.000000 0.000000 0.000000
vn 1.000000 0.000000 0.000000
vn -1.000000 0.000000 0.000000
vn -1.000000 0.000000 0.000000
vn -1.000000 0.000000 0.000000
vn -1.000000 0.000000 0.000000
s off
g Estante Soporte
usemtl lambert5SG
f 19/37/55 20/38/56 22/40/57 21/39/58
f 21/39/59 22/40/60 24/42/61 23/41/62
f 23/41/63 24/42/64 26/44/65 25/43/66
f 25/43/67 26/44/68 20/46/69 19/45/70
f 20/38/71 26/47/72 24/48/73 22/40/74
f 25/49/75 19/37/76 21/39/77 23/50/78
