# This file uses centimeters as units for non-parametric coordinates.

mtllib Pelota.mtl
g default
v 0.462882 0.108343 -0.242939
v 0.296963 0.108343 -0.430224
v 0.063012 0.108343 -0.518950
v -0.185374 0.108343 -0.488791
v -0.391293 0.108343 -0.346655
v -0.507571 0.108343 -0.125105
v -0.507571 0.108343 0.125105
v -0.391293 0.108343 0.346655
v -0.185374 0.108343 0.488791
v 0.063012 0.108343 0.518950
v 0.296962 0.108343 0.430224
v 0.462882 0.108343 0.242939
v 0.522762 0.108343 0.000000
v 0.898864 0.295078 -0.471760
v 0.576667 0.295078 -0.835445
v 0.122362 0.295078 -1.007741
v -0.359974 0.295078 -0.949175
v -0.759845 0.295078 -0.673164
v -0.985644 0.295078 -0.242940
v -0.985644 0.295078 0.242939
v -0.759845 0.295078 0.673164
v -0.359974 0.295078 0.949174
v 0.122362 0.295078 1.007741
v 0.576666 0.295078 0.835446
v 0.898864 0.295078 0.471760
v 1.015142 0.295078 0.000000
v 1.282607 0.594222 -0.673163
v 0.822857 0.594222 -1.192114
v 0.174601 0.594222 -1.437965
v -0.513654 0.594222 -1.354396
v -1.084237 0.594222 -0.960551
v -1.406435 0.594222 -0.346655
v -1.406435 0.594222 0.346655
v -1.084238 0.594222 0.960550
v -0.513655 0.594222 1.354396
v 0.174600 0.594222 1.437965
v 0.822857 0.594222 1.192114
v 1.282606 0.594222 0.673164
v 1.448526 0.594222 0.000000
v 1.591809 0.988389 -0.835445
v 1.021226 0.988389 -1.479500
v 0.216693 0.988389 -1.784620
v -0.637482 0.988389 -1.680904
v -1.345618 0.988389 -1.192114
v -1.745488 0.988389 -0.430225
v -1.745489 0.988389 0.430224
v -1.345618 0.988389 1.192113
v -0.637483 0.988389 1.680904
v 0.216692 0.988389 1.784620
v 1.021225 0.988389 1.479501
v 1.591808 0.988389 0.835446
v 1.797727 0.988389 0.000000
v 1.808501 1.454671 -0.949174
v 1.160245 1.454671 -1.680904
v 0.246191 1.454671 -2.027559
v -0.724263 1.454671 -1.909725
v -1.528796 1.454671 -1.354396
v -1.983101 1.454671 -0.488791
v -1.983101 1.454671 0.488790
v -1.528797 1.454671 1.354395
v -0.724263 1.454671 1.909725
v 0.246190 1.454671 2.027559
v 1.160244 1.454671 1.680904
v 1.808501 1.454671 0.949174
v 2.042451 1.454671 0.000000
v 1.920090 1.965969 -1.007740
v 1.231835 1.965969 -1.784620
v 0.261381 1.965969 -2.152664
v -0.768951 1.965969 -2.027560
v -1.623126 1.965969 -1.437965
v -2.105463 1.965969 -0.518950
v -2.105463 1.965969 0.518950
v -1.623127 1.965969 1.437965
v -0.768952 1.965969 2.027559
v 0.261381 1.965969 2.152664
v 1.231834 1.965969 1.784620
v 1.920089 1.965969 1.007740
v 2.168475 1.965969 0.000000
v 1.920090 2.492570 -1.007740
v 1.231835 2.492570 -1.784620
v 0.261381 2.492570 -2.152664
v -0.768951 2.492570 -2.027560
v -1.623126 2.492570 -1.437965
v -2.105463 2.492570 -0.518950
v -2.105463 2.492570 0.518950
v -1.623127 2.492570 1.437965
v -0.768952 2.492570 2.027559
v 0.261381 2.492570 2.152664
v 1.231834 2.492570 1.784620
v 1.920089 2.492570 1.007740
v 2.168475 2.492570 0.000000
v 1.808501 3.003870 -0.949174
v 1.160245 3.003870 -1.680904
v 0.246191 3.003870 -2.027559
v -0.724263 3.003870 -1.909725
v -1.528796 3.003870 -1.354396
v -1.983101 3.003870 -0.488791
v -1.983101 3.003870 0.488790
v -1.528797 3.003870 1.354395
v -0.724263 3.003870 1.909725
v 0.246190 3.003870 2.027559
v 1.160244 3.003870 1.680904
v 1.808501 3.003870 0.949174
v 2.042451 3.003870 0.000000
v 1.591809 3.470151 -0.835445
v 1.021226 3.470151 -1.479500
v 0.216693 3.470151 -1.784620
v -0.637482 3.470151 -1.680904
v -1.345618 3.470151 -1.192114
v -1.745488 3.470151 -0.430225
v -1.745489 3.470151 0.430224
v -1.345618 3.470151 1.192113
v -0.637483 3.470151 1.680904
v 0.216692 3.470151 1.784620
v 1.021225 3.470151 1.479501
v 1.591808 3.470151 0.835446
v 1.797727 3.470151 0.000000
v 1.282607 3.864318 -0.673163
v 0.822857 3.864318 -1.192114
v 0.174601 3.864318 -1.437965
v -0.513654 3.864318 -1.354396
v -1.084237 3.864318 -0.960551
v -1.406435 3.864318 -0.346655
v -1.406435 3.864318 0.346655
v -1.084238 3.864318 0.960550
v -0.513655 3.864318 1.354396
v 0.174600 3.864318 1.437965
v 0.822857 3.864318 1.192114
v 1.282606 3.864318 0.673164
v 1.448526 3.864318 0.000000
v 0.898864 4.163462 -0.471760
v 0.576667 4.163462 -0.835445
v 0.122362 4.163462 -1.007741
v -0.359974 4.163462 -0.949175
v -0.759845 4.163462 -0.673164
v -0.985644 4.163462 -0.242940
v -0.985644 4.163462 0.242939
v -0.759845 4.163462 0.673164
v -0.359974 4.163462 0.949174
v 0.122362 4.163462 1.007741
v 0.576666 4.163462 0.835446
v 0.898864 4.163462 0.471760
v 1.015142 4.163462 0.000000
v 0.462882 4.350197 -0.242939
v 0.296963 4.350197 -0.430224
v 0.063012 4.350197 -0.518950
v -0.185374 4.350197 -0.488791
v -0.391293 4.350197 -0.346655
v -0.507571 4.350197 -0.125105
v -0.507571 4.350197 0.125105
v -0.391293 4.350197 0.346655
v -0.185374 4.350197 0.488791
v 0.063012 4.350197 0.518950
v 0.296962 4.350197 0.430224
v 0.462882 4.350197 0.242939
v 0.522762 4.350197 0.000000
v 0.000000 0.044868 0.000000
v 0.000000 4.413671 0.000000
vt 0.000000 0.076923
vt 0.076923 0.076923
vt 0.153846 0.076923
vt 0.230769 0.076923
vt 0.307692 0.076923
vt 0.384615 0.076923
vt 0.461538 0.076923
vt 0.538462 0.076923
vt 0.615385 0.076923
vt 0.692308 0.076923
vt 0.769231 0.076923
vt 0.846154 0.076923
vt 0.923077 0.076923
vt 1.000000 0.076923
vt 0.000000 0.153846
vt 0.076923 0.153846
vt 0.153846 0.153846
vt 0.230769 0.153846
vt 0.307692 0.153846
vt 0.384615 0.153846
vt 0.461538 0.153846
vt 0.538462 0.153846
vt 0.615385 0.153846
vt 0.692308 0.153846
vt 0.769231 0.153846
vt 0.846154 0.153846
vt 0.923077 0.153846
vt 1.000000 0.153846
vt 0.000000 0.230769
vt 0.076923 0.230769
vt 0.153846 0.230769
vt 0.230769 0.230769
vt 0.307692 0.230769
vt 0.384615 0.230769
vt 0.461538 0.230769
vt 0.538462 0.230769
vt 0.615385 0.230769
vt 0.692308 0.230769
vt 0.769231 0.230769
vt 0.846154 0.230769
vt 0.923077 0.230769
vt 1.000000 0.230769
vt 0.000000 0.307692
vt 0.076923 0.307692
vt 0.153846 0.307692
vt 0.230769 0.307692
vt 0.307692 0.307692
vt 0.384615 0.307692
vt 0.461538 0.307692
vt 0.538462 0.307692
vt 0.615385 0.307692
vt 0.692308 0.307692
vt 0.769231 0.307692
vt 0.846154 0.307692
vt 0.923077 0.307692
vt 1.000000 0.307692
vt 0.000000 0.384615
vt 0.076923 0.384615
vt 0.153846 0.384615
vt 0.230769 0.384615
vt 0.307692 0.384615
vt 0.384615 0.384615
vt 0.461538 0.384615
vt 0.538462 0.384615
vt 0.615385 0.384615
vt 0.692308 0.384615
vt 0.769231 0.384615
vt 0.846154 0.384615
vt 0.923077 0.384615
vt 1.000000 0.384615
vt 0.000000 0.461538
vt 0.076923 0.461538
vt 0.153846 0.461538
vt 0.230769 0.461538
vt 0.307692 0.461538
vt 0.384615 0.461538
vt 0.461538 0.461538
vt 0.538462 0.461538
vt 0.615385 0.461538
vt 0.692308 0.461538
vt 0.769231 0.461538
vt 0.846154 0.461538
vt 0.923077 0.461538
vt 1.000000 0.461538
vt 0.000000 0.538462
vt 0.076923 0.538462
vt 0.153846 0.538462
vt 0.230769 0.538462
vt 0.307692 0.538462
vt 0.384615 0.538462
vt 0.461538 0.538462
vt 0.538462 0.538462
vt 0.615385 0.538462
vt 0.692308 0.538462
vt 0.769231 0.538462
vt 0.846154 0.538462
vt 0.923077 0.538462
vt 1.000000 0.538462
vt 0.000000 0.615385
vt 0.076923 0.615385
vt 0.153846 0.615385
vt 0.230769 0.615385
vt 0.307692 0.615385
vt 0.384615 0.615385
vt 0.461538 0.615385
vt 0.538462 0.615385
vt 0.615385 0.615385
vt 0.692308 0.615385
vt 0.769231 0.615385
vt 0.846154 0.615385
vt 0.923077 0.615385
vt 1.000000 0.615385
vt 0.000000 0.692308
vt 0.076923 0.692308
vt 0.153846 0.692308
vt 0.230769 0.692308
vt 0.307692 0.692308
vt 0.384615 0.692308
vt 0.461538 0.692308
vt 0.538462 0.692308
vt 0.615385 0.692308
vt 0.692308 0.692308
vt 0.769231 0.692308
vt 0.846154 0.692308
vt 0.923077 0.692308
vt 1.000000 0.692308
vt 0.000000 0.769231
vt 0.076923 0.769231
vt 0.153846 0.769231
vt 0.230769 0.769231
vt 0.307692 0.769231
vt 0.384615 0.769231
vt 0.461538 0.769231
vt 0.538462 0.769231
vt 0.615385 0.769231
vt 0.692308 0.769231
vt 0.769231 0.769231
vt 0.846154 0.769231
vt 0.923077 0.769231
vt 1.000000 0.769231
vt 0.000000 0.846154
vt 0.076923 0.846154
vt 0.153846 0.846154
vt 0.230769 0.846154
vt 0.307692 0.846154
vt 0.384615 0.846154
vt 0.461538 0.846154
vt 0.538462 0.846154
vt 0.615385 0.846154
vt 0.692308 0.846154
vt 0.769231 0.846154
vt 0.846154 0.846154
vt 0.923077 0.846154
vt 1.000000 0.846154
vt 0.000000 0.923077
vt 0.076923 0.923077
vt 0.153846 0.923077
vt 0.230769 0.923077
vt 0.307692 0.923077
vt 0.384615 0.923077
vt 0.461538 0.923077
vt 0.538462 0.923077
vt 0.615385 0.923077
vt 0.692308 0.923077
vt 0.769231 0.923077
vt 0.846154 0.923077
vt 0.923077 0.923077
vt 1.000000 0.923077
vt 0.038462 0.000000
vt 0.115385 0.000000
vt 0.192308 0.000000
vt 0.269231 0.000000
vt 0.346154 0.000000
vt 0.423077 0.000000
vt 0.500000 0.000000
vt 0.576923 0.000000
vt 0.653846 0.000000
vt 0.730769 0.000000
vt 0.807692 0.000000
vt 0.884615 0.000000
vt 0.961539 0.000000
vt 0.038462 1.000000
vt 0.115385 1.000000
vt 0.192308 1.000000
vt 0.269231 1.000000
vt 0.346154 1.000000
vt 0.423077 1.000000
vt 0.500000 1.000000
vt 0.576923 1.000000
vt 0.653846 1.000000
vt 0.730769 1.000000
vt 0.807692 1.000000
vt 0.884615 1.000000
vt 0.961539 1.000000
vn 0.273574 -0.951074 -0.143582
vn 0.175511 -0.951074 -0.254272
vn 0.285484 -0.864545 -0.413595
vn 0.444991 -0.864545 -0.233549
vn 0.037242 -0.951074 -0.306711
vn 0.060577 -0.864545 -0.498892
vn -0.109560 -0.951074 -0.288886
vn -0.178209 -0.864545 -0.469898
vn -0.231262 -0.951074 -0.204881
vn -0.376168 -0.864545 -0.333256
vn -0.299986 -0.951074 -0.073940
vn -0.487952 -0.864545 -0.120270
vn -0.299986 -0.951074 0.073940
vn -0.487953 -0.864545 0.120269
vn -0.231263 -0.951074 0.204881
vn -0.376169 -0.864545 0.333256
vn -0.109560 -0.951074 0.288886
vn -0.178209 -0.864545 0.469898
vn 0.037241 -0.951074 0.306711
vn 0.060576 -0.864545 0.498892
vn 0.175511 -0.951074 0.254272
vn 0.285484 -0.864545 0.413595
vn 0.273574 -0.951074 0.143582
vn 0.444991 -0.864545 0.233549
vn 0.308963 -0.951074 0.000000
vn 0.502556 -0.864545 0.000000
vn 0.389344 -0.728180 -0.564062
vn 0.606880 -0.728180 -0.318515
vn 0.082614 -0.728180 -0.680389
vn -0.243041 -0.728180 -0.640848
vn -0.513019 -0.728180 -0.454495
vn -0.665470 -0.728180 -0.164024
vn -0.665470 -0.728180 0.164024
vn -0.513019 -0.728180 0.454495
vn -0.243041 -0.728180 0.640847
vn 0.082614 -0.728180 0.680389
vn 0.389344 -0.728179 0.564062
vn 0.606880 -0.728179 0.318515
vn 0.685387 -0.728179 0.000000
vn 0.474072 -0.550949 -0.686812
vn 0.738948 -0.550949 -0.387829
vn 0.100593 -0.550949 -0.828454
vn -0.295931 -0.550949 -0.780307
vn -0.624661 -0.550949 -0.553402
vn -0.810289 -0.550949 -0.199718
vn -0.810289 -0.550949 0.199718
vn -0.624661 -0.550949 0.553402
vn -0.295932 -0.550949 0.780307
vn 0.100592 -0.550949 0.828454
vn 0.474072 -0.550949 0.686812
vn 0.738947 -0.550949 0.387830
vn 0.834539 -0.550949 0.000000
vn 0.533567 -0.343175 -0.773005
vn 0.831684 -0.343175 -0.436501
vn 0.113217 -0.343175 -0.932423
vn -0.333070 -0.343175 -0.878234
vn -0.703055 -0.343175 -0.622852
vn -0.911978 -0.343175 -0.224783
vn -0.911978 -0.343175 0.224782
vn -0.703055 -0.343175 0.622852
vn -0.333070 -0.343175 0.878234
vn 0.113217 -0.343175 0.932423
vn 0.533567 -0.343175 0.773005
vn 0.831684 -0.343175 0.436501
vn 0.939272 -0.343175 0.000000
vn 0.564196 -0.116520 -0.817378
vn 0.879425 -0.116520 -0.461558
vn 0.119716 -0.116520 -0.985947
vn -0.352189 -0.116520 -0.928647
vn -0.743412 -0.116520 -0.658606
vn -0.964328 -0.116520 -0.237686
vn -0.964328 -0.116520 0.237685
vn -0.743412 -0.116520 0.658606
vn -0.352190 -0.116520 0.928647
vn 0.119716 -0.116520 0.985947
vn 0.564195 -0.116520 0.817378
vn 0.879425 -0.116520 0.461558
vn 0.993188 -0.116520 0.000000
vn 0.564196 0.116520 -0.817378
vn 0.879425 0.116520 -0.461557
vn 0.119716 0.116520 -0.985947
vn -0.352189 0.116520 -0.928647
vn -0.743412 0.116520 -0.658606
vn -0.964328 0.116520 -0.237686
vn -0.964328 0.116520 0.237685
vn -0.743412 0.116520 0.658606
vn -0.352190 0.116520 0.928647
vn 0.119716 0.116520 0.985947
vn 0.564195 0.116520 0.817378
vn 0.879425 0.116520 0.461558
vn 0.993188 0.116520 0.000000
vn 0.533567 0.343175 -0.773005
vn 0.831684 0.343175 -0.436501
vn 0.113217 0.343175 -0.932423
vn -0.333070 0.343175 -0.878234
vn -0.703055 0.343175 -0.622853
vn -0.911978 0.343175 -0.224783
vn -0.911978 0.343175 0.224782
vn -0.703055 0.343175 0.622852
vn -0.333070 0.343175 0.878234
vn 0.113217 0.343175 0.932423
vn 0.533567 0.343175 0.773005
vn 0.831684 0.343175 0.436501
vn 0.939272 0.343175 0.000000
vn 0.474072 0.550949 -0.686812
vn 0.738947 0.550949 -0.387829
vn 0.100593 0.550949 -0.828454
vn -0.295931 0.550949 -0.780307
vn -0.624661 0.550949 -0.553402
vn -0.810289 0.550949 -0.199718
vn -0.810289 0.550949 0.199718
vn -0.624661 0.550949 0.553401
vn -0.295932 0.550949 0.780307
vn 0.100592 0.550949 0.828454
vn 0.474072 0.550949 0.686812
vn 0.738947 0.550949 0.387830
vn 0.834539 0.550949 0.000000
vn 0.389344 0.728179 -0.564062
vn 0.606880 0.728179 -0.318515
vn 0.082614 0.728179 -0.680389
vn -0.243041 0.728179 -0.640848
vn -0.513019 0.728180 -0.454495
vn -0.665470 0.728179 -0.164024
vn -0.665470 0.728180 0.164024
vn -0.513019 0.728179 0.454495
vn -0.243041 0.728179 0.640848
vn 0.082614 0.728179 0.680389
vn 0.389344 0.728179 0.564062
vn 0.606880 0.728179 0.318515
vn 0.685387 0.728179 0.000000
vn 0.285484 0.864545 -0.413596
vn 0.444991 0.864545 -0.233550
vn 0.060577 0.864545 -0.498892
vn -0.178209 0.864545 -0.469898
vn -0.376169 0.864545 -0.333256
vn -0.487953 0.864545 -0.120270
vn -0.487953 0.864545 0.120270
vn -0.376169 0.864545 0.333256
vn -0.178209 0.864545 0.469898
vn 0.060576 0.864545 0.498892
vn 0.285484 0.864545 0.413595
vn 0.444991 0.864545 0.233550
vn 0.502556 0.864545 0.000000
vn 0.175511 0.951074 -0.254272
vn 0.273573 0.951074 -0.143582
vn 0.037242 0.951074 -0.306710
vn -0.109560 0.951074 -0.288885
vn -0.231262 0.951074 -0.204880
vn -0.299985 0.951074 -0.073940
vn -0.299985 0.951074 0.073940
vn -0.231262 0.951074 0.204880
vn -0.109560 0.951074 0.288885
vn 0.037241 0.951074 0.306710
vn 0.175511 0.951074 0.254272
vn 0.273573 0.951074 0.143582
vn 0.308963 0.951074 -0.000000
vn 0.000000 -1.000000 0.000000
vn 0.000000 1.000000 0.000000
s 1
g Pelota
usemtl lambert5SG
f 1/1/1 2/2/2 15/16/3 14/15/4
f 2/2/2 3/3/5 16/17/6 15/16/3
f 3/3/5 4/4/7 17/18/8 16/17/6
f 4/4/7 5/5/9 18/19/10 17/18/8
f 5/5/9 6/6/11 19/20/12 18/19/10
f 6/6/11 7/7/13 20/21/14 19/20/12
f 7/7/13 8/8/15 21/22/16 20/21/14
f 8/8/15 9/9/17 22/23/18 21/22/16
f 9/9/17 10/10/19 23/24/20 22/23/18
f 10/10/19 11/11/21 24/25/22 23/24/20
f 11/11/21 12/12/23 25/26/24 24/25/22
f 12/12/23 13/13/25 26/27/26 25/26/24
f 13/13/25 1/14/1 14/28/4 26/27/26
f 14/15/4 15/16/3 28/30/27 27/29/28
f 15/16/3 16/17/6 29/31/29 28/30/27
f 16/17/6 17/18/8 30/32/30 29/31/29
f 17/18/8 18/19/10 31/33/31 30/32/30
f 18/19/10 19/20/12 32/34/32 31/33/31
f 19/20/12 20/21/14 33/35/33 32/34/32
f 20/21/14 21/22/16 34/36/34 33/35/33
f 21/22/16 22/23/18 35/37/35 34/36/34
f 22/23/18 23/24/20 36/38/36 35/37/35
f 23/24/20 24/25/22 37/39/37 36/38/36
f 24/25/22 25/26/24 38/40/38 37/39/37
f 25/26/24 26/27/26 39/41/39 38/40/38
f 26/27/26 14/28/4 27/42/28 39/41/39
f 27/29/28 28/30/27 41/44/40 40/43/41
f 28/30/27 29/31/29 42/45/42 41/44/40
f 29/31/29 30/32/30 43/46/43 42/45/42
f 30/32/30 31/33/31 44/47/44 43/46/43
f 31/33/31 32/34/32 45/48/45 44/47/44
f 32/34/32 33/35/33 46/49/46 45/48/45
f 33/35/33 34/36/34 47/50/47 46/49/46
f 34/36/34 35/37/35 48/51/48 47/50/47
f 35/37/35 36/38/36 49/52/49 48/51/48
f 36/38/36 37/39/37 50/53/50 49/52/49
f 37/39/37 38/40/38 51/54/51 50/53/50
f 38/40/38 39/41/39 52/55/52 51/54/51
f 39/41/39 27/42/28 40/56/41 52/55/52
f 40/43/41 41/44/40 54/58/53 53/57/54
f 41/44/40 42/45/42 55/59/55 54/58/53
f 42/45/42 43/46/43 56/60/56 55/59/55
f 43/46/43 44/47/44 57/61/57 56/60/56
f 44/47/44 45/48/45 58/62/58 57/61/57
f 45/48/45 46/49/46 59/63/59 58/62/58
f 46/49/46 47/50/47 60/64/60 59/63/59
f 47/50/47 48/51/48 61/65/61 60/64/60
f 48/51/48 49/52/49 62/66/62 61/65/61
f 49/52/49 50/53/50 63/67/63 62/66/62
f 50/53/50 51/54/51 64/68/64 63/67/63
f 51/54/51 52/55/52 65/69/65 64/68/64
f 52/55/52 40/56/41 53/70/54 65/69/65
f 53/57/54 54/58/53 67/72/66 66/71/67
f 54/58/53 55/59/55 68/73/68 67/72/66
f 55/59/55 56/60/56 69/74/69 68/73/68
f 56/60/56 57/61/57 70/75/70 69/74/69
f 57/61/57 58/62/58 71/76/71 70/75/70
f 58/62/58 59/63/59 72/77/72 71/76/71
f 59/63/59 60/64/60 73/78/73 72/77/72
f 60/64/60 61/65/61 74/79/74 73/78/73
f 61/65/61 62/66/62 75/80/75 74/79/74
f 62/66/62 63/67/63 76/81/76 75/80/75
f 63/67/63 64/68/64 77/82/77 76/81/76
f 64/68/64 65/69/65 78/83/78 77/82/77
f 65/69/65 53/70/54 66/84/67 78/83/78
f 66/71/67 67/72/66 80/86/79 79/85/80
f 67/72/66 68/73/68 81/87/81 80/86/79
f 68/73/68 69/74/69 82/88/82 81/87/81
f 69/74/69 70/75/70 83/89/83 82/88/82
f 70/75/70 71/76/71 84/90/84 83/89/83
f 71/76/71 72/77/72 85/91/85 84/90/84
f 72/77/72 73/78/73 86/92/86 85/91/85
f 73/78/73 74/79/74 87/93/87 86/92/86
f 74/79/74 75/80/75 88/94/88 87/93/87
f 75/80/75 76/81/76 89/95/89 88/94/88
f 76/81/76 77/82/77 90/96/90 89/95/89
f 77/82/77 78/83/78 91/97/91 90/96/90
f 78/83/78 66/84/67 79/98/80 91/97/91
f 79/85/80 80/86/79 93/100/92 92/99/93
f 80/86/79 81/87/81 94/101/94 93/100/92
f 81/87/81 82/88/82 95/102/95 94/101/94
f 82/88/82 83/89/83 96/103/96 95/102/95
f 83/89/83 84/90/84 97/104/97 96/103/96
f 84/90/84 85/91/85 98/105/98 97/104/97
f 85/91/85 86/92/86 99/106/99 98/105/98
f 86/92/86 87/93/87 100/107/100 99/106/99
f 87/93/87 88/94/88 101/108/101 100/107/100
f 88/94/88 89/95/89 102/109/102 101/108/101
f 89/95/89 90/96/90 103/110/103 102/109/102
f 90/96/90 91/97/91 104/111/104 103/110/103
f 91/97/91 79/98/80 92/112/93 104/111/104
f 92/99/93 93/100/92 106/114/105 105/113/106
f 93/100/92 94/101/94 107/115/107 106/114/105
f 94/101/94 95/102/95 108/116/108 107/115/107
f 95/102/95 96/103/96 109/117/109 108/116/108
f 96/103/96 97/104/97 110/118/110 109/117/109
f 97/104/97 98/105/98 111/119/111 110/118/110
f 98/105/98 99/106/99 112/120/112 111/119/111
f 99/106/99 100/107/100 113/121/113 112/120/112
f 100/107/100 101/108/101 114/122/114 113/121/113
f 101/108/101 102/109/102 115/123/115 114/122/114
f 102/109/102 103/110/103 116/124/116 115/123/115
f 103/110/103 104/111/104 117/125/117 116/124/116
f 104/111/104 92/112/93 105/126/106 117/125/117
f 105/113/106 106/114/105 119/128/118 118/127/119
f 106/114/105 107/115/107 120/129/120 119/128/118
f 107/115/107 108/116/108 121/130/121 120/129/120
f 108/116/108 109/117/109 122/131/122 121/130/121
f 109/117/109 110/118/110 123/132/123 122/131/122
f 110/118/110 111/119/111 124/133/124 123/132/123
f 111/119/111 112/120/112 125/134/125 124/133/124
f 112/120/112 113/121/113 126/135/126 125/134/125
f 113/121/113 114/122/114 127/136/127 126/135/126
f 114/122/114 115/123/115 128/137/128 127/136/127
f 115/123/115 116/124/116 129/138/129 128/137/128
f 116/124/116 117/125/117 130/139/130 129/138/129
f 117/125/117 105/126/106 118/140/119 130/139/130
f 118/127/119 119/128/118 132/142/131 131/141/132
f 119/128/118 120/129/120 133/143/133 132/142/131
f 120/129/120 121/130/121 134/144/134 133/143/133
f 121/130/121 122/131/122 135/145/135 134/144/134
f 122/131/122 123/132/123 136/146/136 135/145/135
f 123/132/123 124/133/124 137/147/137 136/146/136
f 124/133/124 125/134/125 138/148/138 137/147/137
f 125/134/125 126/135/126 139/149/139 138/148/138
f 126/135/126 127/136/127 140/150/140 139/149/139
f 127/136/127 128/137/128 141/151/141 140/150/140
f 128/137/128 129/138/129 142/152/142 141/151/141
f 129/138/129 130/139/130 143/153/143 142/152/142
f 130/139/130 118/140/119 131/154/132 143/153/143
f 131/141/132 132/142/131 145/156/144 144/155/145
f 132/142/131 133/143/133 146/157/146 145/156/144
f 133/143/133 134/144/134 147/158/147 146/157/146
f 134/144/134 135/145/135 148/159/148 147/158/147
f 135/145/135 136/146/136 149/160/149 148/159/148
f 136/146/136 137/147/137 150/161/150 149/160/149
f 137/147/137 138/148/138 151/162/151 150/161/150
f 138/148/138 139/149/139 152/163/152 151/162/151
f 139/149/139 140/150/140 153/164/153 152/163/152
f 140/150/140 141/151/141 154/165/154 153/164/153
f 141/151/141 142/152/142 155/166/155 154/165/154
f 142/152/142 143/153/143 156/167/156 155/166/155
f 143/153/143 131/154/132 144/168/145 156/167/156
f 2/2/2 1/1/1 157/169/157
f 3/3/5 2/2/2 157/170/157
f 4/4/7 3/3/5 157/171/157
f 5/5/9 4/4/7 157/172/157
f 6/6/11 5/5/9 157/173/157
f 7/7/13 6/6/11 157/174/157
f 8/8/15 7/7/13 157/175/157
f 9/9/17 8/8/15 157/176/157
f 10/10/19 9/9/17 157/177/157
f 11/11/21 10/10/19 157/178/157
f 12/12/23 11/11/21 157/179/157
f 13/13/25 12/12/23 157/180/157
f 1/14/1 13/13/25 157/181/157
f 144/155/145 145/156/144 158/182/158
f 145/156/144 146/157/146 158/183/158
f 146/157/146 147/158/147 158/184/158
f 147/158/147 148/159/148 158/185/158
f 148/159/148 149/160/149 158/186/158
f 149/160/149 150/161/150 158/187/158
f 150/161/150 151/162/151 158/188/158
f 151/162/151 152/163/152 158/189/158
f 152/163/152 153/164/153 158/190/158
f 153/164/153 154/165/154 158/191/158
f 154/165/154 155/166/155 158/192/158
f 155/166/155 156/167/156 158/193/158
f 156/167/156 144/168/145 158/194/158
