# This file uses centimeters as units for non-parametric coordinates.

mtllib Libro.mtl
g default
v 0.177618 1.852808 -0.776869
v 0.291834 1.852808 -0.776869
v 0.177618 -0.003850 -0.776869
v 0.291834 -0.003850 -0.776869
v 0.177618 1.852808 0.702113
v 0.177365 -0.003850 0.702143
v 0.291834 -0.003850 0.702113
v 0.291834 1.852808 0.702113
vt 0.625000 0.500000
vt 0.375000 0.500000
vt 0.625000 0.750000
vt 0.375000 0.750000
vt 0.875000 0.000000
vt 0.875000 0.250000
vt 0.125000 0.000000
vt 0.125000 0.250000
vt 0.363400 0.250043
vt 0.375854 0.262074
vt 0.363421 0.000012
vt 0.385690 0.987971
vt 0.625000 0.987972
vt 0.637028 0.000000
vt 0.625000 0.262028
vt 0.637028 0.250000
vn 0.000000 0.000000 -1.000000
vn 0.000000 0.000000 -1.000000
vn 0.000000 0.000000 -1.000000
vn 0.000000 0.000000 -1.000000
vn -1.000000 0.000068 -0.000085
vn -1.000000 0.000068 -0.000085
vn -1.000000 0.000068 -0.000085
vn -1.000000 0.000068 -0.000085
vn 0.000000 -1.000000 0.000000
vn 0.000000 -1.000000 0.000000
vn 0.000000 -1.000000 0.000000
vn 0.000000 -1.000000 0.000000
vn 1.000000 0.000000 -0.000000
vn 1.000000 0.000000 -0.000000
vn 1.000000 0.000000 -0.000000
vn 1.000000 0.000000 -0.000000
vn 0.000000 1.000000 0.000000
vn 0.000000 1.000000 0.000000
vn 0.000000 1.000000 0.000000
vn 0.000000 1.000000 0.000000
s off
g Tapa1 Libro
usemtl lambert5SG
f 1/2/1 2/1/2 4/3/3 3/4/4
f 3/7/5 6/11/6 5/9/7 1/8/8
f 3/4/9 4/3/10 7/13/11 6/12/12
f 8/16/13 7/14/14 4/5/15 2/6/16
f 5/10/17 8/15/18 2/1/19 1/2/20
g default
v -0.291709 1.852808 -0.776869
v -0.177493 1.852808 -0.776869
v -0.291709 -0.003850 -0.776869
v -0.177493 -0.003850 -0.776869
v -0.177365 1.852808 0.702143
v -0.177493 -0.003850 0.702207
v -0.291709 1.852808 0.702207
v -0.291709 -0.003850 0.702207
vt 0.375000 0.500000
vt 0.625000 0.500000
vt 0.375000 0.750000
vt 0.625000 0.750000
vt 0.875000 0.000000
vt 0.875000 0.250000
vt 0.125000 0.000000
vt 0.125000 0.250000
vt 0.632397 0.262211
vt 0.636709 0.250040
vt 0.362765 0.250000
vt 0.375000 0.262235
vt 0.362765 0.000000
vt 0.375000 0.987765
vt 0.623727 0.987838
vt 0.636702 0.000009
vn 0.000000 0.000000 -1.000000
vn 0.000000 0.000000 -1.000000
vn 0.000000 0.000000 -1.000000
vn 0.000000 0.000000 -1.000000
vn 0.000000 1.000000 0.000000
vn 0.000000 1.000000 0.000000
vn 0.000000 1.000000 0.000000
vn 0.000000 1.000000 0.000000
vn -1.000000 0.000000 0.000000
vn -1.000000 0.000000 0.000000
vn -1.000000 0.000000 0.000000
vn -1.000000 0.000000 0.000000
vn 0.000000 -1.000000 0.000000
vn 0.000000 -1.000000 0.000000
vn 0.000000 -1.000000 0.000000
vn 0.000000 -1.000000 0.000000
vn 1.000000 -0.000034 -0.000043
vn 1.000000 -0.000034 -0.000043
vn 1.000000 -0.000034 -0.000043
vn 1.000000 -0.000034 -0.000043
s off
g Libro Tapa2
usemtl pasted__lambert5SG
f 9/17/21 10/18/22 12/20/23 11/19/24
f 15/28/25 13/25/26 10/18/27 9/17/28
f 11/23/29 16/29/30 15/27/31 9/24/32
f 11/19/33 12/20/34 14/31/35 16/30/36
f 13/26/37 14/32/38 12/21/39 10/22/40
g default
v -0.291709 -0.003850 0.776869
v -0.177493 -0.003850 0.776869
v -0.291709 1.852808 0.776869
v -0.177493 1.852808 0.776869
v 0.177618 -0.003850 0.776869
v 0.291834 -0.003850 0.776869
v 0.177618 1.852808 0.776869
v 0.291834 1.852808 0.776869
v -0.177365 1.852808 0.702143
v 0.177618 1.852808 0.702113
v -0.177493 -0.003850 0.702207
v 0.177365 -0.003850 0.702143
v 0.291834 -0.003850 0.702113
v 0.291834 1.852808 0.702113
v -0.291709 1.852808 0.702207
v -0.291709 -0.003850 0.702207
vt 0.375000 0.000000
vt 0.624526 0.000002
vt 0.375000 0.250000
vt 0.624551 0.250053
vt 0.375000 1.000000
vt 0.624049 0.999995
vt 0.375474 0.000002
vt 0.625000 0.000000
vt 0.625000 0.250000
vt 0.375449 0.250053
vt 0.625000 1.000000
vt 0.375951 0.999995
vt 0.385293 0.000002
vt 0.607590 -0.000180
vt 0.606452 0.253542
vt 0.386714 0.252126
vt 0.613870 0.498863
vt 0.378851 0.498733
vt 0.620231 0.751050
vt 0.383699 0.751588
vt 0.611977 0.996711
vt 0.384247 0.997254
vt 0.871514 -0.000401
vt 0.869348 0.252082
vt 0.129438 -0.000633
vt 0.127651 0.250537
vt 0.363400 0.250043
vt 0.375854 0.262074
vt 0.363421 0.000012
vt 0.385690 0.987971
vt 0.625000 0.987972
vt 0.637028 0.000000
vt 0.625000 0.262028
vt 0.637028 0.250000
vt 0.632397 0.262211
vt 0.636709 0.250040
vt 0.362765 0.250000
vt 0.375000 0.262235
vt 0.362765 0.000000
vt 0.375000 0.987765
vt 0.623727 0.987838
vt 0.636702 0.000009
vn 0.000000 0.000000 1.000000
vn 0.000000 0.000000 1.000000
vn 0.000000 0.000000 1.000000
vn 0.000000 0.000000 1.000000
vn 0.000000 1.000000 -0.000001
vn 0.000000 1.000000 -0.000001
vn 0.000000 1.000000 -0.000001
vn 0.000000 1.000000 -0.000001
vn 0.000000 -1.000000 0.000000
vn 0.000000 -1.000000 0.000000
vn 0.000000 -1.000000 0.000000
vn 0.000000 -1.000000 0.000000
vn 1.000000 -0.000034 0.000857
vn 1.000000 -0.000034 0.000857
vn 1.000000 -0.000034 0.000857
vn 1.000000 -0.000034 0.000857
vn -1.000000 0.000000 0.000000
vn -1.000000 0.000000 0.000000
vn -1.000000 0.000000 0.000000
vn -1.000000 0.000000 0.000000
vn 0.000000 0.000000 1.000000
vn 0.000000 0.000000 1.000000
vn 0.000000 0.000000 1.000000
vn 0.000000 0.000000 1.000000
vn 0.000000 1.000000 0.000000
vn 0.000000 1.000000 0.000000
vn 0.000000 1.000000 0.000000
vn 0.000000 1.000000 0.000000
vn 0.000000 -1.000000 0.000001
vn 0.000000 -1.000000 0.000001
vn 0.000000 -1.000000 0.000001
vn 0.000000 -1.000000 0.000001
vn 1.000000 0.000000 0.000000
vn 1.000000 0.000000 0.000000
vn 1.000000 0.000000 0.000000
vn 1.000000 0.000000 0.000000
vn -0.999999 0.000068 0.001690
vn -0.999999 0.000068 0.001690
vn -0.999999 0.000068 0.001690
vn -0.999999 0.000068 0.001690
vn 0.000000 0.000000 1.000000
vn 0.000000 0.000000 1.000000
vn 0.000000 0.000000 1.000000
vn 0.000000 0.000000 1.000000
vn 0.000000 1.000000 0.000000
vn 0.000000 1.000000 0.000000
vn 0.000000 1.000000 0.000000
vn 0.000000 1.000000 0.000000
vn -0.000132 -0.000025 -1.000000
vn -0.000132 -0.000025 -1.000000
vn -0.000132 -0.000025 -1.000000
vn -0.000132 -0.000025 -1.000000
vn 0.000000 -1.000000 -0.000001
vn 0.000000 -1.000000 -0.000001
vn 0.000000 -1.000000 -0.000001
vn 0.000000 -1.000000 -0.000001
vn 0.999999 -0.000068 -0.001690
vn 0.999999 -0.000068 -0.001690
vn 0.999999 -0.000068 -0.001690
vn 0.999999 -0.000068 -0.001690
vn -1.000000 0.000034 -0.000857
vn -1.000000 0.000034 -0.000857
vn -1.000000 0.000034 -0.000857
vn -1.000000 0.000034 -0.000857
s off
g Libro Espina
usemtl pasted__lambert5SG1
f 17/33/41 18/34/42 20/36/43 19/35/44
f 19/35/45 20/36/46 25/67/47 31/70/48
f 32/72/49 27/73/50 18/38/51 17/37/52
f 18/34/53 27/74/54 25/68/55 20/36/56
f 32/71/57 17/33/58 19/35/59 31/69/60
f 21/39/61 22/40/62 24/41/63 23/42/64
f 23/42/65 24/41/66 30/65/67 26/60/68
f 28/62/69 29/63/70 22/43/71 21/44/72
f 22/40/73 29/64/74 30/66/75 24/41/76
f 28/61/77 21/39/78 23/42/79 26/59/80
f 18/45/81 21/46/82 23/47/83 20/48/84
f 20/48/85 23/47/86 26/49/87 25/50/88
f 25/50/89 26/49/90 28/51/91 27/52/92
f 27/52/93 28/51/94 21/53/95 18/54/96
f 21/46/97 28/55/98 26/56/99 23/47/100
f 27/57/101 18/45/102 20/48/103 25/58/104
g default
v -0.177365 0.024918 0.706458
v 0.177365 0.024918 0.706458
v -0.177365 1.824040 0.706458
v 0.177365 1.824040 0.706458
v -0.177365 1.824040 -0.706458
v 0.177365 1.824040 -0.706458
v -0.177365 0.024918 -0.706458
v 0.177365 0.024918 -0.706458
vt 0.375000 0.000000
vt 0.625000 0.000000
vt 0.375000 0.250000
vt 0.625000 0.250000
vt 0.375000 0.500000
vt 0.625000 0.500000
vt 0.375000 0.750000
vt 0.625000 0.750000
vt 0.375000 1.000000
vt 0.625000 1.000000
vt 0.875000 0.000000
vt 0.875000 0.250000
vt 0.125000 0.000000
vt 0.125000 0.250000
vn 0.000000 0.000000 1.000000
vn 0.000000 0.000000 1.000000
vn 0.000000 0.000000 1.000000
vn 0.000000 0.000000 1.000000
vn 0.000000 1.000000 0.000000
vn 0.000000 1.000000 0.000000
vn 0.000000 1.000000 0.000000
vn 0.000000 1.000000 0.000000
vn 0.000000 0.000000 -1.000000
vn 0.000000 0.000000 -1.000000
vn 0.000000 0.000000 -1.000000
vn 0.000000 0.000000 -1.000000
vn 0.000000 -1.000000 0.000000
vn 0.000000 -1.000000 0.000000
vn 0.000000 -1.000000 0.000000
vn 0.000000 -1.000000 0.000000
vn 1.000000 0.000000 0.000000
vn 1.000000 0.000000 0.000000
vn 1.000000 0.000000 0.000000
vn 1.000000 0.000000 0.000000
vn -1.000000 0.000000 0.000000
vn -1.000000 0.000000 0.000000
vn -1.000000 0.000000 0.000000
vn -1.000000 0.000000 0.000000
s off
g Libro Hojas
usemtl lambert5SG
f 33/75/105 34/76/106 36/78/107 35/77/108
f 35/77/109 36/78/110 38/80/111 37/79/112
f 37/79/113 38/80/114 40/82/115 39/81/116
f 39/81/117 40/82/118 34/84/119 33/83/120
f 34/76/121 40/85/122 38/86/123 36/78/124
f 39/87/125 33/75/126 35/77/127 37/88/128
