# This file uses centimeters as units for non-parametric coordinates.

mtllib Tacho_Vaso.mtl
g default
v 0.390978 2.735409 -1.203307
v 0.427286 2.740499 -1.315051
v 0.000000 2.740499 -1.382727
v 0.000000 2.735409 -1.265232
v -1.265231 2.735409 -0.000000
v -1.382727 2.740499 0.000000
v -1.315051 2.740499 0.427286
v -1.203307 2.735409 0.390978
v -0.620051 0.014752 0.853427
v -0.325980 0.014752 1.003263
v -0.427286 2.740499 1.315051
v -0.812747 2.740499 1.118649
v 1.003264 0.014752 -0.325980
v 0.853427 0.014752 -0.620051
v 1.118650 2.740499 -0.812747
v 1.315052 2.740499 -0.427286
v -0.743684 2.735409 1.023594
v -0.390978 2.735409 1.203307
v -0.309017 0.171273 0.951057
v -0.587785 0.171273 0.809017
v 1.203307 2.735409 -0.390978
v 1.023594 2.735409 -0.743685
v 0.809018 0.171273 -0.587786
v 0.951057 0.171273 -0.309017
v 0.743685 2.735409 -1.023594
v 0.812747 2.740499 -1.118650
v -0.809017 0.171273 0.587785
v -1.023594 2.735409 0.743684
v -1.023594 2.735409 0.743684
v -0.743684 2.735409 1.023594
v -0.000000 0.014752 1.054894
v -0.000000 2.740499 1.382727
v 1.054893 0.014752 0.000000
v 1.382727 2.740499 0.000000
v -0.000000 2.735409 1.265231
v -0.000000 0.171273 1.000000
v 1.265231 2.735409 -0.000000
v 1.000000 0.171273 0.000000
v -1.118649 2.740499 0.812747
v 1.003263 0.014752 0.325980
v 1.315051 2.740499 0.427286
v 0.325980 0.014752 1.003263
v 0.427286 2.740499 1.315051
v 1.203306 2.735409 0.390978
v 0.951056 0.171273 0.309017
v 0.390978 2.735409 1.203306
v 0.309017 0.171273 0.951057
v 0.853427 0.014752 0.620051
v 1.118649 2.740499 0.812747
v 0.620051 0.014752 0.853427
v 0.812747 2.740499 1.118649
v 1.023594 2.735409 0.743684
v 0.809017 0.171273 0.587785
v 0.743684 2.735409 1.023594
v 0.587785 0.171273 0.809017
v 0.743684 2.735409 1.023594
v 1.023594 2.735409 0.743684
v 0.587786 0.171273 -0.809017
v 0.000000 0.171273 0.000000
v 0.000000 0.014752 0.000000
v 0.620051 0.014752 -0.853427
v -0.853427 0.014752 0.620051
v -1.203307 2.735409 -0.390978
v -1.315051 2.740499 -0.427286
v -0.427286 2.740499 -1.315051
v -0.390978 2.735409 -1.203307
v -1.023594 2.735409 -0.743684
v -1.118649 2.740499 -0.812747
v -0.812747 2.740499 -1.118649
v -0.743685 2.735409 -1.023594
v -0.951057 0.171273 0.309017
v 0.309017 0.171273 -0.951057
v -1.003264 0.014752 0.325980
v 0.325980 0.014752 -1.003264
v -1.000000 0.171273 0.000000
v -0.000000 0.171273 -1.000000
v -1.054894 0.014752 0.000000
v 0.000000 0.014752 -1.054894
v -0.951057 0.171273 -0.309017
v -0.309017 0.171273 -0.951057
v -0.809017 0.171273 -0.587785
v -0.587786 0.171273 -0.809017
v -1.003264 0.014752 -0.325980
v -0.325980 0.014752 -1.003264
v -0.853427 0.014752 -0.620051
v -0.620051 0.014752 -0.853427
vt 0.545771 0.984295
vt 0.548284 0.992353
vt 0.500000 1.000000
vt 0.500000 0.991544
vt 0.351881 0.843425
vt 0.343750 0.843750
vt 0.351397 0.795466
vt 0.359130 0.797653
vt 0.525000 0.312500
vt 0.537500 0.312500
vt 0.537500 0.688440
vt 0.525000 0.688440
vt 0.375000 0.312500
vt 0.387500 0.312500
vt 0.387500 0.688440
vt 0.375000 0.688440
vt 0.525000 0.679655
vt 0.537500 0.679655
vt 0.537500 0.312500
vt 0.525000 0.312500
vt 0.375000 0.679655
vt 0.387500 0.679655
vt 0.387500 0.312500
vt 0.375000 0.312500
vt 0.587062 0.963256
vt 0.591841 0.970159
vt 0.512500 0.312500
vt 0.512500 0.679655
vt 0.512500 0.679655
vt 0.525000 0.679655
vt 0.550000 0.312500
vt 0.550000 0.688440
vt 0.612500 0.312500
vt 0.625000 0.312500
vt 0.625000 0.688440
vt 0.612500 0.688440
vt 0.550000 0.679655
vt 0.550000 0.312500
vt 0.612500 0.679655
vt 0.625000 0.679655
vt 0.625000 0.312500
vt 0.612500 0.312500
vt 0.373591 0.751909
vt 0.380169 0.756362
vt 0.380169 0.756362
vt 0.408159 0.717341
vt 0.412938 0.723594
vt 0.619831 0.930487
vt 0.626409 0.935591
vt 0.600000 0.312500
vt 0.600000 0.688440
vt 0.562500 0.312500
vt 0.562500 0.688440
vt 0.600000 0.679655
vt 0.600000 0.312500
vt 0.562500 0.679655
vt 0.562500 0.312500
vt 0.587500 0.312500
vt 0.587500 0.688440
vt 0.575000 0.312500
vt 0.575000 0.688440
vt 0.587500 0.679655
vt 0.587500 0.312500
vt 0.575000 0.679655
vt 0.575000 0.312500
vt 0.640870 0.889196
vt 0.648603 0.892034
vt 0.454229 0.702555
vt 0.451716 0.695147
vt 0.500000 0.687500
vt 0.500000 0.695305
vt 0.648119 0.843425
vt 0.656250 0.843750
vt 0.412938 0.723594
vt 0.640870 0.797653
vt 0.648603 0.795466
vt 0.548284 0.695147
vt 0.545771 0.702555
vt 0.587062 0.723594
vt 0.591842 0.717341
vt 0.626409 0.751908
vt 0.619831 0.756362
vt 0.619831 0.756362
vt 0.587062 0.723594
vt 0.575000 0.679655
vt 0.587500 0.679655
vt 0.400000 0.679655
vt 0.400000 0.312500
vt 0.626409 0.248091
vt 0.500000 0.150000
vt 0.591841 0.282659
vt 0.548284 0.304853
vt 0.648603 0.204534
vt 0.626409 0.248091
vt 0.591841 0.282659
vt 0.500000 0.150000
vt 0.400000 0.312500
vt 0.400000 0.688440
vt 0.512500 0.312500
vt 0.512500 0.688440
vt 0.548284 0.304853
vt 0.648603 0.204534
vt 0.500000 0.312500
vt 0.656250 0.156250
vt 0.500000 0.312500
vt 0.656250 0.156250
vt 0.359130 0.889196
vt 0.351397 0.892034
vt 0.451716 0.992353
vt 0.454229 0.984295
vt 0.648603 0.107966
vt 0.451716 0.304853
vt 0.648603 0.107966
vt 0.451716 0.304853
vt 0.626409 0.064408
vt 0.408159 0.282659
vt 0.380169 0.930487
vt 0.373591 0.935591
vt 0.408159 0.970159
vt 0.412938 0.963256
vt 0.500000 0.679655
vt 0.500000 0.312500
vt 0.412500 0.679655
vt 0.412500 0.312500
vt 0.626409 0.064408
vt 0.408159 0.282659
vt 0.500000 0.312500
vt 0.500000 0.688440
vt 0.412500 0.312500
vt 0.412500 0.688440
vt 0.591842 0.029841
vt 0.373591 0.248091
vt 0.591842 0.029841
vt 0.373591 0.248091
vt 0.351397 0.204534
vt 0.548284 0.007647
vt 0.351397 0.204534
vt 0.548284 0.007647
vt 0.487500 0.679655
vt 0.487500 0.312500
vt 0.425000 0.679655
vt 0.425000 0.312500
vt 0.343750 0.156250
vt 0.500000 -0.000000
vt 0.487500 0.312500
vt 0.487500 0.688440
vt 0.425000 0.312500
vt 0.425000 0.688440
vt 0.343750 0.156250
vt 0.500000 -0.000000
vt 0.351397 0.107966
vt 0.451716 0.007647
vt 0.373591 0.064409
vt 0.408159 0.029841
vt 0.351397 0.107966
vt 0.451716 0.007647
vt 0.475000 0.679655
vt 0.475000 0.312500
vt 0.437500 0.679655
vt 0.437500 0.312500
vt 0.373591 0.064409
vt 0.408159 0.029841
vt 0.475000 0.312500
vt 0.475000 0.688440
vt 0.437500 0.312500
vt 0.437500 0.688440
vt 0.462500 0.679655
vt 0.462500 0.312500
vt 0.450000 0.679655
vt 0.450000 0.312500
vt 0.462500 0.312500
vt 0.462500 0.688440
vt 0.450000 0.312500
vt 0.450000 0.688440
vn -0.013375 0.999063 0.041164
vn -0.013375 0.999063 0.041164
vn -0.000000 0.999063 0.043283
vn 0.000000 0.999063 0.043283
vn 0.043282 0.999063 -0.000000
vn 0.043282 0.999063 -0.000000
vn 0.041164 0.999063 -0.013375
vn 0.041164 0.999063 -0.013375
vn -0.583579 -0.119412 0.803228
vn -0.306806 -0.119412 0.944252
vn -0.306806 -0.119412 0.944251
vn -0.583579 -0.119412 0.803228
vn 0.944252 -0.119412 -0.306805
vn 0.803228 -0.119412 -0.583580
vn 0.803228 -0.119412 -0.583580
vn 0.944252 -0.119412 -0.306805
vn 0.587726 0.102889 -0.802491
vn 0.307377 0.102890 -0.946009
vn 0.307377 0.102890 -0.946009
vn 0.584666 0.102890 -0.804723
vn -0.946009 0.102890 0.307376
vn -0.804723 0.102890 0.584666
vn -0.804723 0.102890 0.584666
vn -0.946009 0.102890 0.307376
vn -0.025441 0.999063 0.035016
vn -0.025441 0.999063 0.035016
vn 0.804723 0.102890 -0.584666
vn 0.886393 0.101636 -0.451640
vn 0.000000 0.000000 -0.000000
vn 0.703445 0.101636 -0.703445
vn 0.000000 -0.119412 0.992845
vn 0.000000 -0.119412 0.992845
vn 0.992845 -0.119412 0.000001
vn 0.992845 -0.119412 0.000001
vn -0.000000 0.102890 -0.994693
vn -0.000000 0.102890 -0.994693
vn -0.994693 0.102890 -0.000001
vn -0.994693 0.102890 -0.000001
vn 0.035016 0.999063 -0.025441
vn 0.030986 0.999039 -0.030986
vn 0.000000 0.000000 -0.000000
vn 0.025441 0.999063 -0.035016
vn 0.024776 0.999063 -0.035499
vn -0.035016 0.999063 0.025440
vn -0.035016 0.999063 0.025440
vn 0.944251 -0.119412 0.306806
vn 0.944251 -0.119412 0.306806
vn 0.306806 -0.119412 0.944251
vn 0.306806 -0.119412 0.944251
vn -0.946009 0.102890 -0.307377
vn -0.946009 0.102890 -0.307377
vn -0.307377 0.102890 -0.946009
vn -0.307377 0.102890 -0.946009
vn 0.803228 -0.119412 0.583579
vn 0.803228 -0.119412 0.583579
vn 0.583579 -0.119412 0.803228
vn 0.583579 -0.119412 0.803228
vn -0.886393 0.101636 -0.451639
vn -0.804723 0.102890 -0.584666
vn -0.451639 0.101636 -0.886393
vn -0.584666 0.102890 -0.804724
vn -0.041164 0.999063 0.013375
vn -0.041164 0.999063 0.013375
vn 0.013375 0.999063 -0.041164
vn 0.013375 0.999063 -0.041164
vn -0.000000 0.999063 -0.043282
vn -0.000000 0.999063 -0.043282
vn -0.043282 0.999063 0.000000
vn -0.043282 0.999063 0.000000
vn 0.019894 0.999040 -0.039044
vn -0.041164 0.999063 -0.013375
vn -0.041164 0.999063 -0.013375
vn -0.013375 0.999063 -0.041163
vn -0.013375 0.999063 -0.041163
vn -0.030986 0.999039 -0.030986
vn -0.025441 0.999063 -0.035016
vn -0.035016 0.999063 -0.025440
vn -0.030986 0.999039 -0.030986
vn -0.000000 0.000000 -0.000000
vn -0.000000 0.000000 -0.000000
vn -0.000000 0.000000 -0.000000
vn -0.000000 0.000000 -0.000000
vn -0.584665 0.102890 0.804724
vn -0.584666 0.102890 0.804724
vn 0.000000 1.000000 0.000000
vn 0.000000 1.000000 0.000000
vn 0.000000 1.000000 0.000000
vn 0.000000 1.000000 0.000000
vn 0.000000 1.000000 0.000000
vn 0.000000 -1.000000 0.000000
vn 0.000000 -1.000000 0.000000
vn 0.000000 -1.000000 0.000000
vn 0.583579 -0.119412 -0.803229
vn 0.583579 -0.119412 -0.803229
vn -0.803228 -0.119412 0.583580
vn -0.803228 -0.119412 0.583580
vn 0.000000 -1.000000 0.000000
vn 0.000000 -1.000000 0.000000
vn 0.000000 1.000000 0.000000
vn 0.000000 1.000000 0.000000
vn 0.000000 -1.000000 0.000000
vn 0.000000 -1.000000 0.000000
vn 0.041164 0.999063 0.013374
vn 0.041164 0.999063 0.013374
vn 0.013375 0.999063 0.041164
vn 0.013375 0.999063 0.041164
vn 0.000000 1.000000 0.000000
vn 0.000000 1.000000 0.000000
vn 0.000000 -1.000000 -0.000000
vn 0.000000 -1.000000 -0.000000
vn 0.000000 1.000000 0.000000
vn 0.000000 1.000000 0.000000
vn 0.035016 0.999063 0.025440
vn 0.035016 0.999063 0.025440
vn 0.025441 0.999063 0.035016
vn 0.025441 0.999063 0.035016
vn 0.946009 0.102890 -0.307377
vn 0.946009 0.102890 -0.307377
vn -0.307377 0.102890 0.946009
vn -0.307377 0.102890 0.946009
vn 0.000000 -1.000000 -0.000000
vn 0.000000 -1.000000 -0.000000
vn -0.944251 -0.119412 0.306806
vn -0.944251 -0.119412 0.306806
vn 0.306806 -0.119412 -0.944252
vn 0.306806 -0.119412 -0.944251
vn 0.000000 1.000000 0.000000
vn 0.000000 1.000000 0.000000
vn 0.000000 -1.000000 -0.000000
vn 0.000000 -1.000000 0.000000
vn 0.000000 1.000000 0.000000
vn 0.000000 1.000000 0.000000
vn 0.000000 -1.000000 0.000000
vn 0.000000 -1.000000 -0.000000
vn 0.994693 0.102890 0.000000
vn 0.994693 0.102890 0.000000
vn 0.000000 0.102890 0.994693
vn 0.000000 0.102890 0.994693
vn 0.000000 1.000000 0.000000
vn 0.000000 1.000000 0.000000
vn -0.992845 -0.119412 -0.000000
vn -0.992845 -0.119412 -0.000000
vn -0.000000 -0.119412 -0.992845
vn 0.000000 -0.119412 -0.992845
vn 0.000000 -1.000000 0.000000
vn 0.000000 -1.000000 0.000000
vn 0.000000 1.000000 0.000000
vn 0.000000 1.000000 0.000000
vn 0.000000 1.000000 0.000000
vn 0.000000 1.000000 0.000000
vn 0.000000 -1.000000 0.000000
vn 0.000000 -1.000000 0.000000
vn 0.946009 0.102890 0.307377
vn 0.946009 0.102890 0.307377
vn 0.307377 0.102890 0.946009
vn 0.307377 0.102890 0.946009
vn 0.000000 -1.000000 0.000000
vn 0.000000 -1.000000 0.000000
vn -0.944251 -0.119412 -0.306806
vn -0.944252 -0.119412 -0.306806
vn -0.306806 -0.119412 -0.944251
vn -0.306806 -0.119412 -0.944251
vn 0.804724 0.102890 0.584665
vn 0.804724 0.102890 0.584665
vn 0.584666 0.102890 0.804723
vn 0.584666 0.102890 0.804723
vn -0.803229 -0.119412 -0.583579
vn -0.803228 -0.119412 -0.583579
vn -0.583580 -0.119412 -0.803228
vn -0.583580 -0.119412 -0.803228
s 1
g Tacho_Vaso
usemtl lambert5SG
f 1/1/1 2/2/2 3/3/3 4/4/4
f 5/5/5 6/6/6 7/7/7 8/8/8
s 3
f 9/9/9 10/10/10 11/11/11 12/12/12
f 13/13/13 14/14/14 15/15/15 16/16/16
s 5
f 17/17/17 18/18/18 19/19/19 20/20/20
f 21/21/21 22/22/22 23/23/23 24/24/24
s 1
f 25/25/25 26/26/26 2/2/2 1/1/1
s 5
f 27/27/27 28/28/28 29/29/29 30/30/30 17/17/17 20/20/20
s 3
f 10/10/10 31/31/31 32/32/32 11/11/11
f 33/33/33 13/34/13 16/35/16 34/36/34
s 5
f 18/18/18 35/37/35 36/38/36 19/19/19
f 37/39/37 21/40/21 24/41/24 38/42/38
s 1
f 7/7/7 39/43/39 29/44/40 28/45/41 8/8/8
f 29/44/40 39/43/39 12/46/42 30/47/43
f 22/48/44 15/49/45 26/26/26 25/25/25
s 3
f 40/50/46 33/33/33 34/36/34 41/51/47
f 31/31/31 42/52/48 43/53/49 32/32/32
s 5
f 44/54/50 37/39/37 38/42/38 45/55/51
f 35/37/35 46/56/52 47/57/53 36/38/36
s 3
f 48/58/54 40/50/46 41/51/47 49/59/55
f 42/52/48 50/60/56 51/61/57 43/53/49
s 5
f 52/62/58 44/54/50 45/55/51 53/63/59
f 46/56/52 54/64/60 55/65/61 47/57/53
s 3
f 50/60/56 48/58/54 49/59/55 51/61/57
s 1
f 21/66/62 16/67/63 15/49/45 22/48/44
f 18/68/64 11/69/65 32/70/66 35/71/67
f 37/72/68 34/73/69 16/67/63 21/66/62
f 12/46/42 11/69/65 18/68/64 17/74/70 30/47/43
f 44/75/71 41/76/72 34/73/69 37/72/68
f 35/71/67 32/70/66 43/77/73 46/78/74
f 56/79/75 51/80/76 49/81/77 57/82/78
f 49/81/77 41/76/72 44/75/71 52/83/79 57/82/78
f 43/77/73 51/80/76 56/79/75 54/84/80 46/78/74
s 5
f 55/65/61 54/64/60 56/85/81 57/86/82 52/62/58 53/63/59
f 22/22/22 25/87/83 58/88/84 23/23/23
s 7
f 53/89/85 59/90/86 55/91/87
f 55/91/87 59/90/86 47/92/88
f 45/93/89 59/90/86 53/89/85
s 8
f 48/94/90 50/95/91 60/96/92
s 3
f 14/14/14 61/97/93 26/98/94 15/15/15
f 62/99/95 9/9/9 12/12/12 39/100/96
s 8
f 50/95/91 42/101/97 60/96/92
f 40/102/98 48/94/90 60/96/92
s 7
f 47/92/88 59/90/86 36/103/99
f 38/104/100 59/90/86 45/93/89
s 8
f 42/101/97 31/105/101 60/96/92
f 33/106/102 40/102/98 60/96/92
s 1
f 63/107/103 64/108/104 6/6/6 5/5/5
f 4/4/4 3/3/3 65/109/105 66/110/106
s 7
f 24/111/107 59/90/86 38/104/100
f 36/103/99 59/90/86 19/112/108
s 8
f 13/113/109 33/106/102 60/96/92
f 31/105/101 10/114/110 60/96/92
s 7
f 23/115/111 59/90/86 24/111/107
f 19/112/108 59/90/86 20/116/112
s 1
f 67/117/113 68/118/114 64/108/104 63/107/103
f 66/110/106 65/109/105 69/119/115 70/120/116
s 5
f 8/121/117 28/28/28 27/27/27 71/122/118
f 25/87/83 1/123/119 72/124/120 58/88/84
s 8
f 14/125/121 13/113/109 60/96/92
f 10/114/110 9/126/122 60/96/92
s 1
f 70/120/116 69/119/115 68/118/114 67/117/113
s 3
f 73/127/123 62/99/95 39/100/96 7/128/124
f 61/97/93 74/129/125 2/130/126 26/98/94
s 7
f 58/131/127 59/90/86 23/115/111
f 20/116/112 59/90/86 27/132/128
s 8
f 61/133/129 14/125/121 60/96/92
f 9/126/122 62/134/130 60/96/92
s 7
f 27/132/128 59/90/86 71/135/131
f 72/136/132 59/90/86 58/131/127
s 8
f 62/134/130 73/137/133 60/96/92
f 74/138/134 61/133/129 60/96/92
s 5
f 5/139/135 8/121/117 71/122/118 75/140/136
f 1/123/119 4/141/137 76/142/138 72/124/120
s 7
f 71/135/131 59/90/86 75/143/139
f 76/144/140 59/90/86 72/136/132
s 3
f 77/145/141 73/127/123 7/128/124 6/146/142
f 74/129/125 78/147/143 3/148/144 2/130/126
s 8
f 73/137/133 77/149/145 60/96/92
f 78/150/146 74/138/134 60/96/92
s 7
f 75/143/139 59/90/86 79/151/147
f 80/152/148 59/90/86 76/144/140
f 79/151/147 59/90/86 81/153/149
f 82/154/150 59/90/86 80/152/148
f 81/153/149 59/90/86 82/154/150
s 8
f 77/149/145 83/155/151 60/96/92
f 84/156/152 78/150/146 60/96/92
s 5
f 63/157/153 5/139/135 75/140/136 79/158/154
f 4/141/137 66/159/155 80/160/156 76/142/138
s 8
f 83/155/151 85/161/157 60/96/92
f 86/162/158 84/156/152 60/96/92
f 85/161/157 86/162/158 60/96/92
s 3
f 83/163/159 77/145/141 6/146/142 64/164/160
f 78/147/143 84/165/161 65/166/162 3/148/144
s 5
f 67/167/163 63/157/153 79/158/154 81/168/164
f 66/159/155 70/169/165 82/170/166 80/160/156
f 70/169/165 67/167/163 81/168/164 82/170/166
s 3
f 85/171/167 83/163/159 64/164/160 68/172/168
f 84/165/161 86/173/169 69/174/170 65/166/162
f 86/173/169 85/171/167 68/172/168 69/174/170
